<mxfile host="Electron" agent="Mozilla/5.0 (Windows NT 10.0; Win64; x64) AppleWebKit/537.36 (KHTML, like Gecko) draw.io/27.0.9 Chrome/134.0.6998.205 Electron/35.4.0 Safari/537.36" version="27.0.9">
  <diagram name="A3 Форма 1" id="4UMWuW4LYQygtjcPz86S">
    <mxGraphModel dx="1733" dy="1031" grid="1" gridSize="3.937" guides="1" tooltips="1" connect="1" arrows="1" fold="1" page="1" pageScale="1" pageWidth="1654" pageHeight="1169" background="none" math="0" shadow="0">
      <root>
        <object label="" BlueprintName="РВНУ.ХХХХХХ.001 Э1" ProductName="Схема контроля токов" Material="" Manufacturer="" Designer="Соломонов" Checker="Белкин" Approver="Боннет" Date="31.12.21" Scale="" id="-3bvXb9xsOaprucixAK7-0">
          <mxCell />
        </object>
        <mxCell id="-3bvXb9xsOaprucixAK7-1" parent="-3bvXb9xsOaprucixAK7-0" />
        <mxCell id="-3bvXb9xsOaprucixAK7-2" value="" style="rounded=0;whiteSpace=wrap;html=1;fillColor=none;strokeWidth=1;" parent="-3bvXb9xsOaprucixAK7-1" vertex="1">
          <mxGeometry x="1" width="1653.1462999999999" height="1168.8953" as="geometry" />
        </mxCell>
        <mxCell id="-3bvXb9xsOaprucixAK7-3" value="" style="rounded=0;whiteSpace=wrap;html=1;strokeWidth=2;fillColor=none;strokeColor=#004C99;" parent="-3bvXb9xsOaprucixAK7-1" vertex="1">
          <mxGeometry x="31.549999999999997" y="19.8" width="1602.36" height="1128.91" as="geometry" />
        </mxCell>
        <object placeholder="BlueprintName" placeholders="1" id="-3bvXb9xsOaprucixAK7-4">
          <mxCell style="rounded=0;whiteSpace=wrap;html=1;strokeWidth=2;fillColor=none;strokeColor=#004C99;fontFamily=GOSTRUS Type A;fontSize=24;rotation=-180;" parent="-3bvXb9xsOaprucixAK7-1" vertex="1">
            <mxGeometry x="79.74000000000001" y="20.689999999999998" width="275.59" height="55.117999999999995" as="geometry" />
          </mxCell>
        </object>
        <mxCell id="-3bvXb9xsOaprucixAK7-5" value="" style="rounded=0;whiteSpace=wrap;html=1;strokeWidth=1;fillColor=none;fontFamily=GOSTRUS Type A;" parent="-3bvXb9xsOaprucixAK7-1" vertex="1">
          <mxGeometry x="905.5700000000022" y="934.067" width="728.3449999999999" height="216.535" as="geometry" />
        </mxCell>
        <mxCell id="-3bvXb9xsOaprucixAK7-6" value="" style="rounded=0;whiteSpace=wrap;html=1;strokeWidth=1;fillColor=none;fontFamily=GOSTRUS Type A;fontSize=14;" parent="-3bvXb9xsOaprucixAK7-1" vertex="1">
          <mxGeometry x="905.5800000000022" y="934.067" width="27.558999999999997" height="19.685" as="geometry" />
        </mxCell>
        <mxCell id="-3bvXb9xsOaprucixAK7-7" value="" style="rounded=0;whiteSpace=wrap;html=1;strokeWidth=1;fillColor=none;fontFamily=GOSTRUS Type A;fontSize=14;" parent="-3bvXb9xsOaprucixAK7-1" vertex="1">
          <mxGeometry x="905.5770000000023" y="953.754" width="27.558999999999997" height="19.685" as="geometry" />
        </mxCell>
        <mxCell id="-3bvXb9xsOaprucixAK7-8" value="" style="rounded=0;whiteSpace=wrap;html=1;strokeWidth=1;fillColor=none;fontFamily=GOSTRUS Type A;fontSize=14;" parent="-3bvXb9xsOaprucixAK7-1" vertex="1">
          <mxGeometry x="905.5870000000023" y="973.434" width="27.558999999999997" height="19.685" as="geometry" />
        </mxCell>
        <mxCell id="-3bvXb9xsOaprucixAK7-9" value="" style="rounded=0;whiteSpace=wrap;html=1;strokeWidth=1;fillColor=none;fontFamily=GOSTRUS Type A;fontSize=14;" parent="-3bvXb9xsOaprucixAK7-1" vertex="1">
          <mxGeometry x="905.5840000000022" y="993.1210000000001" width="27.558999999999997" height="19.685" as="geometry" />
        </mxCell>
        <mxCell id="-3bvXb9xsOaprucixAK7-10" value="Изм" style="rounded=0;whiteSpace=wrap;html=1;strokeWidth=1;fillColor=none;fontFamily=GOSTRUS Type A;fontStyle=2;fontSize=14;" parent="-3bvXb9xsOaprucixAK7-1" vertex="1">
          <mxGeometry x="905.5810000000023" y="1012.808" width="27.558999999999997" height="19.685" as="geometry" />
        </mxCell>
        <mxCell id="-3bvXb9xsOaprucixAK7-11" value="" style="rounded=0;whiteSpace=wrap;html=1;strokeWidth=1;fillColor=none;fontFamily=GOSTRUS Type A;fontSize=14;" parent="-3bvXb9xsOaprucixAK7-1" vertex="1">
          <mxGeometry x="933.1470000000023" y="934.064" width="39.37" height="19.685" as="geometry" />
        </mxCell>
        <mxCell id="-3bvXb9xsOaprucixAK7-12" value="" style="rounded=0;whiteSpace=wrap;html=1;strokeWidth=1;fillColor=none;fontFamily=GOSTRUS Type A;fontSize=14;" parent="-3bvXb9xsOaprucixAK7-1" vertex="1">
          <mxGeometry x="933.1440000000024" y="953.751" width="39.37" height="19.685" as="geometry" />
        </mxCell>
        <mxCell id="-3bvXb9xsOaprucixAK7-13" value="" style="rounded=0;whiteSpace=wrap;html=1;strokeWidth=1;fillColor=none;fontFamily=GOSTRUS Type A;fontSize=14;" parent="-3bvXb9xsOaprucixAK7-1" vertex="1">
          <mxGeometry x="933.1540000000024" y="973.4309999999999" width="39.37" height="19.685" as="geometry" />
        </mxCell>
        <mxCell id="-3bvXb9xsOaprucixAK7-14" value="" style="rounded=0;whiteSpace=wrap;html=1;strokeWidth=1;fillColor=none;fontFamily=GOSTRUS Type A;fontSize=14;" parent="-3bvXb9xsOaprucixAK7-1" vertex="1">
          <mxGeometry x="933.1510000000023" y="993.118" width="39.37" height="19.685" as="geometry" />
        </mxCell>
        <mxCell id="-3bvXb9xsOaprucixAK7-15" value="Лист" style="rounded=0;whiteSpace=wrap;html=1;strokeWidth=1;fillColor=none;fontFamily=GOSTRUS Type A;fontStyle=2;fontSize=14;" parent="-3bvXb9xsOaprucixAK7-1" vertex="1">
          <mxGeometry x="933.1480000000024" y="1012.805" width="39.37" height="19.685" as="geometry" />
        </mxCell>
        <mxCell id="-3bvXb9xsOaprucixAK7-16" value="" style="rounded=0;whiteSpace=wrap;html=1;strokeWidth=1;fillColor=none;fontFamily=GOSTRUS Type A;fontSize=14;" parent="-3bvXb9xsOaprucixAK7-1" vertex="1">
          <mxGeometry x="972.5240000000024" y="934.071" width="90.551" height="19.685" as="geometry" />
        </mxCell>
        <mxCell id="-3bvXb9xsOaprucixAK7-17" value="" style="rounded=0;whiteSpace=wrap;html=1;strokeWidth=1;fillColor=none;fontFamily=GOSTRUS Type A;fontSize=14;" parent="-3bvXb9xsOaprucixAK7-1" vertex="1">
          <mxGeometry x="972.5210000000025" y="953.758" width="90.551" height="19.685" as="geometry" />
        </mxCell>
        <mxCell id="-3bvXb9xsOaprucixAK7-18" value="" style="rounded=0;whiteSpace=wrap;html=1;strokeWidth=1;fillColor=none;fontFamily=GOSTRUS Type A;fontSize=14;" parent="-3bvXb9xsOaprucixAK7-1" vertex="1">
          <mxGeometry x="972.5310000000025" y="973.438" width="90.551" height="19.685" as="geometry" />
        </mxCell>
        <mxCell id="-3bvXb9xsOaprucixAK7-19" value="" style="rounded=0;whiteSpace=wrap;html=1;strokeWidth=1;fillColor=none;fontFamily=GOSTRUS Type A;fontSize=14;" parent="-3bvXb9xsOaprucixAK7-1" vertex="1">
          <mxGeometry x="972.5280000000023" y="993.1250000000001" width="90.551" height="19.685" as="geometry" />
        </mxCell>
        <mxCell id="-3bvXb9xsOaprucixAK7-20" value="№ докум." style="rounded=0;whiteSpace=wrap;html=1;strokeWidth=1;fillColor=none;fontFamily=GOSTRUS Type A;fontStyle=2;fontSize=14;" parent="-3bvXb9xsOaprucixAK7-1" vertex="1">
          <mxGeometry x="972.5250000000024" y="1012.812" width="90.551" height="19.685" as="geometry" />
        </mxCell>
        <mxCell id="-3bvXb9xsOaprucixAK7-21" value="" style="rounded=0;whiteSpace=wrap;html=1;strokeWidth=1;fillColor=none;fontFamily=GOSTRUS Type A;fontSize=14;" parent="-3bvXb9xsOaprucixAK7-1" vertex="1">
          <mxGeometry x="1063.0810000000013" y="934.068" width="59.055" height="19.685" as="geometry" />
        </mxCell>
        <mxCell id="-3bvXb9xsOaprucixAK7-22" value="" style="rounded=0;whiteSpace=wrap;html=1;strokeWidth=1;fillColor=none;fontFamily=GOSTRUS Type A;fontSize=14;" parent="-3bvXb9xsOaprucixAK7-1" vertex="1">
          <mxGeometry x="1063.0780000000013" y="953.755" width="59.055" height="19.685" as="geometry" />
        </mxCell>
        <mxCell id="-3bvXb9xsOaprucixAK7-23" value="" style="rounded=0;whiteSpace=wrap;html=1;strokeWidth=1;fillColor=none;fontFamily=GOSTRUS Type A;fontSize=14;" parent="-3bvXb9xsOaprucixAK7-1" vertex="1">
          <mxGeometry x="1063.0880000000013" y="973.435" width="59.055" height="19.685" as="geometry" />
        </mxCell>
        <mxCell id="-3bvXb9xsOaprucixAK7-24" value="" style="rounded=0;whiteSpace=wrap;html=1;strokeWidth=1;fillColor=none;fontFamily=GOSTRUS Type A;fontSize=14;" parent="-3bvXb9xsOaprucixAK7-1" vertex="1">
          <mxGeometry x="1063.0850000000014" y="993.1220000000001" width="59.055" height="19.685" as="geometry" />
        </mxCell>
        <mxCell id="-3bvXb9xsOaprucixAK7-25" value="Подп." style="rounded=0;whiteSpace=wrap;html=1;strokeWidth=1;fillColor=none;fontFamily=GOSTRUS Type A;fontStyle=2;fontSize=14;" parent="-3bvXb9xsOaprucixAK7-1" vertex="1">
          <mxGeometry x="1063.0820000000015" y="1012.809" width="59.055" height="19.685" as="geometry" />
        </mxCell>
        <mxCell id="-3bvXb9xsOaprucixAK7-26" value="" style="rounded=0;whiteSpace=wrap;html=1;strokeWidth=1;fillColor=none;fontFamily=GOSTRUS Type A;fontSize=14;" parent="-3bvXb9xsOaprucixAK7-1" vertex="1">
          <mxGeometry x="1063.0880000000013" y="1032.485" width="59.055" height="19.685" as="geometry" />
        </mxCell>
        <mxCell id="-3bvXb9xsOaprucixAK7-27" value="" style="rounded=0;whiteSpace=wrap;html=1;strokeWidth=1;fillColor=none;fontFamily=GOSTRUS Type A;fontSize=14;" parent="-3bvXb9xsOaprucixAK7-1" vertex="1">
          <mxGeometry x="1063.0850000000014" y="1052.172" width="59.055" height="19.685" as="geometry" />
        </mxCell>
        <mxCell id="-3bvXb9xsOaprucixAK7-28" value="" style="rounded=0;whiteSpace=wrap;html=1;strokeWidth=1;fillColor=none;fontFamily=GOSTRUS Type A;fontSize=14;" parent="-3bvXb9xsOaprucixAK7-1" vertex="1">
          <mxGeometry x="1063.0950000000014" y="1071.8519999999999" width="59.055" height="19.685" as="geometry" />
        </mxCell>
        <mxCell id="-3bvXb9xsOaprucixAK7-29" value="" style="rounded=0;whiteSpace=wrap;html=1;strokeWidth=1;fillColor=none;fontFamily=GOSTRUS Type A;fontSize=14;" parent="-3bvXb9xsOaprucixAK7-1" vertex="1">
          <mxGeometry x="1063.0920000000015" y="1091.539" width="59.055" height="19.685" as="geometry" />
        </mxCell>
        <mxCell id="-3bvXb9xsOaprucixAK7-30" value="" style="rounded=0;whiteSpace=wrap;html=1;strokeWidth=1;fillColor=none;fontFamily=GOSTRUS Type A;fontSize=14;" parent="-3bvXb9xsOaprucixAK7-1" vertex="1">
          <mxGeometry x="1063.0890000000013" y="1111.2259999999999" width="59.055" height="19.685" as="geometry" />
        </mxCell>
        <mxCell id="-3bvXb9xsOaprucixAK7-31" value="" style="rounded=0;whiteSpace=wrap;html=1;strokeWidth=1;fillColor=none;fontFamily=GOSTRUS Type A;fontSize=14;" parent="-3bvXb9xsOaprucixAK7-1" vertex="1">
          <mxGeometry x="1122.1549999999997" y="934.0719999999998" width="39.37" height="19.685" as="geometry" />
        </mxCell>
        <mxCell id="-3bvXb9xsOaprucixAK7-32" value="" style="rounded=0;whiteSpace=wrap;html=1;strokeWidth=1;fillColor=none;fontFamily=GOSTRUS Type A;fontSize=14;" parent="-3bvXb9xsOaprucixAK7-1" vertex="1">
          <mxGeometry x="1122.1519999999996" y="953.7589999999999" width="39.37" height="19.685" as="geometry" />
        </mxCell>
        <mxCell id="-3bvXb9xsOaprucixAK7-33" value="" style="rounded=0;whiteSpace=wrap;html=1;strokeWidth=1;fillColor=none;fontFamily=GOSTRUS Type A;fontSize=14;" parent="-3bvXb9xsOaprucixAK7-1" vertex="1">
          <mxGeometry x="1122.1619999999996" y="973.4389999999997" width="39.37" height="19.685" as="geometry" />
        </mxCell>
        <mxCell id="-3bvXb9xsOaprucixAK7-34" value="" style="rounded=0;whiteSpace=wrap;html=1;strokeWidth=1;fillColor=none;fontFamily=GOSTRUS Type A;fontSize=14;" parent="-3bvXb9xsOaprucixAK7-1" vertex="1">
          <mxGeometry x="1122.1589999999997" y="993.1259999999999" width="39.37" height="19.685" as="geometry" />
        </mxCell>
        <mxCell id="-3bvXb9xsOaprucixAK7-35" value="Дата" style="rounded=0;whiteSpace=wrap;html=1;strokeWidth=1;fillColor=none;fontFamily=GOSTRUS Type A;fontStyle=2;fontSize=14;" parent="-3bvXb9xsOaprucixAK7-1" vertex="1">
          <mxGeometry x="1122.1559999999997" y="1012.8129999999998" width="39.37" height="19.685" as="geometry" />
        </mxCell>
        <object placeholders="1" placeholder="Date" id="-3bvXb9xsOaprucixAK7-36">
          <mxCell style="rounded=0;whiteSpace=wrap;html=1;strokeWidth=1;fillColor=none;fontFamily=GOSTRUS Type A;fontSize=12;" parent="-3bvXb9xsOaprucixAK7-1" vertex="1">
            <mxGeometry x="1122.1619999999996" y="1032.4789999999998" width="39.37" height="19.685" as="geometry" />
          </mxCell>
        </object>
        <object placeholders="1" placeholder="Date" id="-3bvXb9xsOaprucixAK7-37">
          <mxCell style="rounded=0;whiteSpace=wrap;html=1;strokeWidth=1;fillColor=none;fontFamily=GOSTRUS Type A;fontSize=12;" parent="-3bvXb9xsOaprucixAK7-1" vertex="1">
            <mxGeometry x="1122.1589999999997" y="1052.166" width="39.37" height="19.685" as="geometry" />
          </mxCell>
        </object>
        <mxCell id="-3bvXb9xsOaprucixAK7-38" value="" style="rounded=0;whiteSpace=wrap;html=1;strokeWidth=1;fillColor=none;fontFamily=GOSTRUS Type A;fontSize=12;" parent="-3bvXb9xsOaprucixAK7-1" vertex="1">
          <mxGeometry x="1122.1689999999996" y="1071.8459999999998" width="39.37" height="19.685" as="geometry" />
        </mxCell>
        <mxCell id="-3bvXb9xsOaprucixAK7-39" value="" style="rounded=0;whiteSpace=wrap;html=1;strokeWidth=1;fillColor=none;fontFamily=GOSTRUS Type A;fontSize=12;" parent="-3bvXb9xsOaprucixAK7-1" vertex="1">
          <mxGeometry x="1122.1659999999997" y="1091.533" width="39.37" height="19.685" as="geometry" />
        </mxCell>
        <mxCell id="-3bvXb9xsOaprucixAK7-40" value="" style="rounded=0;whiteSpace=wrap;html=1;strokeWidth=1;fillColor=none;fontFamily=GOSTRUS Type A;fontSize=12;" parent="-3bvXb9xsOaprucixAK7-1" vertex="1">
          <mxGeometry x="1122.1629999999998" y="1111.2199999999998" width="39.37" height="19.685" as="geometry" />
        </mxCell>
        <object placeholder="Date" placeholders="1" id="-3bvXb9xsOaprucixAK7-41">
          <mxCell style="rounded=0;whiteSpace=wrap;html=1;strokeWidth=1;fillColor=none;fontFamily=GOSTRUS Type A;fontSize=12;" parent="-3bvXb9xsOaprucixAK7-1" vertex="1">
            <mxGeometry x="1122.1299999999997" y="1130.9169999999997" width="39.37" height="19.685" as="geometry" />
          </mxCell>
        </object>
        <mxCell id="-3bvXb9xsOaprucixAK7-42" value="" style="rounded=0;whiteSpace=wrap;html=1;strokeWidth=1;fillColor=none;fontFamily=GOSTRUS Type A;fontSize=14;" parent="-3bvXb9xsOaprucixAK7-1" vertex="1">
          <mxGeometry x="1063.1160000000013" y="1130.9229999999998" width="59.055" height="19.685" as="geometry" />
        </mxCell>
        <mxCell id="-3bvXb9xsOaprucixAK7-43" value="Разраб." style="rounded=0;whiteSpace=wrap;html=1;strokeWidth=1;fillColor=none;fontFamily=GOSTRUS Type A;fontStyle=2;fontSize=14;" parent="-3bvXb9xsOaprucixAK7-1" vertex="1">
          <mxGeometry x="905.6050000000023" y="1032.482" width="66.929" height="19.685" as="geometry" />
        </mxCell>
        <mxCell id="-3bvXb9xsOaprucixAK7-44" value="Проверил" style="rounded=0;whiteSpace=wrap;html=1;strokeWidth=1;fillColor=none;fontFamily=GOSTRUS Type A;fontStyle=2;fontSize=14;" parent="-3bvXb9xsOaprucixAK7-1" vertex="1">
          <mxGeometry x="905.5720000000023" y="1052.1689999999999" width="66.929" height="19.685" as="geometry" />
        </mxCell>
        <mxCell id="-3bvXb9xsOaprucixAK7-45" value="Т. контр." style="rounded=0;whiteSpace=wrap;html=1;strokeWidth=1;fillColor=none;fontFamily=GOSTRUS Type A;fontStyle=2;fontSize=14;" parent="-3bvXb9xsOaprucixAK7-1" vertex="1">
          <mxGeometry x="905.5690000000022" y="1071.8559999999998" width="66.929" height="19.685" as="geometry" />
        </mxCell>
        <mxCell id="-3bvXb9xsOaprucixAK7-46" value="" style="rounded=0;whiteSpace=wrap;html=1;strokeWidth=1;fillColor=none;fontFamily=GOSTRUS Type A;fontStyle=2;fontSize=14;" parent="-3bvXb9xsOaprucixAK7-1" vertex="1">
          <mxGeometry x="905.6060000000023" y="1091.5429999999997" width="66.929" height="19.685" as="geometry" />
        </mxCell>
        <mxCell id="-3bvXb9xsOaprucixAK7-47" value="Н. контр." style="rounded=0;whiteSpace=wrap;html=1;strokeWidth=1;fillColor=none;fontFamily=GOSTRUS Type A;fontStyle=2;fontSize=14;" parent="-3bvXb9xsOaprucixAK7-1" vertex="1">
          <mxGeometry x="905.6030000000022" y="1111.2399999999996" width="66.929" height="19.685" as="geometry" />
        </mxCell>
        <mxCell id="-3bvXb9xsOaprucixAK7-48" value="Утв." style="rounded=0;whiteSpace=wrap;html=1;strokeWidth=1;fillColor=none;fontFamily=GOSTRUS Type A;fontStyle=2;fontSize=14;" parent="-3bvXb9xsOaprucixAK7-1" vertex="1">
          <mxGeometry x="905.6100000000023" y="1130.9269999999995" width="66.929" height="19.685" as="geometry" />
        </mxCell>
        <object placeholders="1" placeholder="Designer" label="Соломонов" id="-3bvXb9xsOaprucixAK7-49">
          <mxCell style="rounded=0;whiteSpace=wrap;html=1;strokeWidth=1;fillColor=none;fontFamily=GOSTRUS Type A;fontSize=14;" parent="-3bvXb9xsOaprucixAK7-1" vertex="1">
            <mxGeometry x="972.5620000000024" y="1032.499" width="90.551" height="19.685" as="geometry" />
          </mxCell>
        </object>
        <mxCell id="-3bvXb9xsOaprucixAK7-50" value="" style="rounded=0;whiteSpace=wrap;html=1;strokeWidth=1;fillColor=none;fontFamily=GOSTRUS Type A;fontSize=14;" parent="-3bvXb9xsOaprucixAK7-1" vertex="1">
          <mxGeometry x="972.5190000000025" y="1091.5559999999998" width="90.551" height="19.685" as="geometry" />
        </mxCell>
        <mxCell id="-3bvXb9xsOaprucixAK7-51" value="" style="rounded=0;whiteSpace=wrap;html=1;strokeWidth=1;fillColor=none;fontFamily=GOSTRUS Type A;fontSize=14;" parent="-3bvXb9xsOaprucixAK7-1" vertex="1">
          <mxGeometry x="972.4820000000025" y="1071.869" width="90.551" height="19.685" as="geometry" />
        </mxCell>
        <object placeholders="1" placeholder="Checker" label="Белкин" id="-3bvXb9xsOaprucixAK7-52">
          <mxCell style="rounded=0;whiteSpace=wrap;html=1;strokeWidth=1;fillColor=none;fontFamily=GOSTRUS Type A;fontSize=14;" parent="-3bvXb9xsOaprucixAK7-1" vertex="1">
            <mxGeometry x="972.4850000000024" y="1052.182" width="90.551" height="19.685" as="geometry" />
          </mxCell>
        </object>
        <object placeholders="1" placeholder="Approver" label="Боннет" id="-3bvXb9xsOaprucixAK7-53">
          <mxCell style="rounded=0;whiteSpace=wrap;html=1;strokeWidth=1;fillColor=none;fontFamily=GOSTRUS Type A;fontSize=14;" parent="-3bvXb9xsOaprucixAK7-1" vertex="1">
            <mxGeometry x="972.5960000000025" y="1130.9029999999998" width="90.551" height="19.685" as="geometry" />
          </mxCell>
        </object>
        <mxCell id="-3bvXb9xsOaprucixAK7-54" value="" style="rounded=0;whiteSpace=wrap;html=1;strokeWidth=1;fillColor=none;fontFamily=GOSTRUS Type A;fontSize=14;" parent="-3bvXb9xsOaprucixAK7-1" vertex="1">
          <mxGeometry x="972.5590000000025" y="1111.216" width="90.551" height="19.685" as="geometry" />
        </mxCell>
        <object placeholders="1" placeholder="BlueprintName" label="РВНУ.ХХХХХХ.001 Э1" id="-3bvXb9xsOaprucixAK7-55">
          <mxCell style="rounded=0;whiteSpace=wrap;html=1;strokeWidth=1;fillColor=none;fontFamily=GOSTRUS Type A;fontSize=28;" parent="-3bvXb9xsOaprucixAK7-1" vertex="1">
            <mxGeometry x="1161.5379999999984" y="934.075" width="472.44" height="59.055" as="geometry" />
          </mxCell>
        </object>
        <object placeholders="1" placeholder="ProductName" label="Схема контроля токов" id="-3bvXb9xsOaprucixAK7-56">
          <mxCell style="rounded=0;whiteSpace=wrap;html=1;strokeWidth=1;fillColor=none;fontFamily=GOSTRUS Type A;fontSize=24;" parent="-3bvXb9xsOaprucixAK7-1" vertex="1">
            <mxGeometry x="1161.5349999999985" y="993.1020000000001" width="275.59" height="98.425" as="geometry" />
          </mxCell>
        </object>
        <object placeholders="1" placeholder="Material" label="" id="-3bvXb9xsOaprucixAK7-57">
          <mxCell style="rounded=0;whiteSpace=wrap;html=1;strokeWidth=1;fillColor=none;fontFamily=GOSTRUS Type A;fontSize=24;" parent="-3bvXb9xsOaprucixAK7-1" vertex="1">
            <mxGeometry x="1161.5019999999986" y="1091.529" width="275.59" height="59.055" as="geometry" />
          </mxCell>
        </object>
        <object placeholders="1" placeholder="Manufacturer" label="" id="-3bvXb9xsOaprucixAK7-58">
          <mxCell style="rounded=0;whiteSpace=wrap;html=1;strokeWidth=1;fillColor=none;fontFamily=GOSTRUS Type A;fontSize=24;" parent="-3bvXb9xsOaprucixAK7-1" vertex="1">
            <mxGeometry x="1437.1289999999906" y="1091.5559999999998" width="196.85" height="59.055" as="geometry" />
          </mxCell>
        </object>
        <object label="Лист" placeholders="1" id="-3bvXb9xsOaprucixAK7-59">
          <mxCell style="rounded=0;whiteSpace=wrap;html=1;strokeWidth=1;fillColor=none;fontFamily=GOSTRUS Type A;fontStyle=2;fontSize=14;" parent="-3bvXb9xsOaprucixAK7-1" vertex="1">
            <mxGeometry x="1437.1259999999907" y="1071.8329999999996" width="78.74" height="19.685" as="geometry" />
          </mxCell>
        </object>
        <mxCell id="-3bvXb9xsOaprucixAK7-60" value="Листов 1" style="rounded=0;whiteSpace=wrap;html=1;strokeWidth=1;fillColor=none;fontFamily=GOSTRUS Type A;fontStyle=2;fontSize=14;" parent="-3bvXb9xsOaprucixAK7-1" vertex="1">
          <mxGeometry x="1515.8029999999883" y="1071.8699999999994" width="118.11" height="19.685" as="geometry" />
        </mxCell>
        <mxCell id="-3bvXb9xsOaprucixAK7-61" value="Масштаб" style="rounded=0;whiteSpace=wrap;html=1;strokeWidth=1;fillColor=none;fontFamily=GOSTRUS Type A;fontStyle=2;fontSize=14;" parent="-3bvXb9xsOaprucixAK7-1" vertex="1">
          <mxGeometry x="1563.109999999987" y="993.1069999999993" width="70.866" height="19.685" as="geometry" />
        </mxCell>
        <mxCell id="-3bvXb9xsOaprucixAK7-62" value="Масса" style="rounded=0;whiteSpace=wrap;html=1;strokeWidth=1;fillColor=none;fontFamily=GOSTRUS Type A;fontStyle=2;fontSize=14;" parent="-3bvXb9xsOaprucixAK7-1" vertex="1">
          <mxGeometry x="1496.176999999989" y="993.1339999999993" width="66.929" height="19.685" as="geometry" />
        </mxCell>
        <mxCell id="-3bvXb9xsOaprucixAK7-63" value="Лит." style="rounded=0;whiteSpace=wrap;html=1;strokeWidth=1;fillColor=none;fontFamily=GOSTRUS Type A;fontStyle=2;fontSize=14;" parent="-3bvXb9xsOaprucixAK7-1" vertex="1">
          <mxGeometry x="1437.1239999999907" y="993.1009999999993" width="59.055" height="19.685" as="geometry" />
        </mxCell>
        <mxCell id="-3bvXb9xsOaprucixAK7-64" value="" style="rounded=0;whiteSpace=wrap;html=1;strokeWidth=1;fillColor=none;fontFamily=GOSTRUS Type A;" parent="-3bvXb9xsOaprucixAK7-1" vertex="1">
          <mxGeometry x="1437.0909999999906" y="1012.8179999999993" width="59.055" height="59.055" as="geometry" />
        </mxCell>
        <mxCell id="-3bvXb9xsOaprucixAK7-65" value="" style="rounded=0;whiteSpace=wrap;html=1;strokeWidth=1;fillColor=none;fontFamily=GOSTRUS Type A;" parent="-3bvXb9xsOaprucixAK7-1" vertex="1">
          <mxGeometry x="1496.183999999989" y="1012.7809999999994" width="66.929" height="59.055" as="geometry" />
        </mxCell>
        <object placeholders="1" placeholder="Scale" label="" id="-3bvXb9xsOaprucixAK7-66">
          <mxCell style="rounded=0;whiteSpace=wrap;html=1;strokeWidth=1;fillColor=none;fontFamily=GOSTRUS Type A;fontSize=18;" parent="-3bvXb9xsOaprucixAK7-1" vertex="1">
            <mxGeometry x="1563.046999999987" y="1012.7839999999993" width="70.866" height="59.055" as="geometry" />
          </mxCell>
        </object>
        <mxCell id="-3bvXb9xsOaprucixAK7-67" value="" style="rounded=0;whiteSpace=wrap;html=1;strokeWidth=1;fillColor=none;fontFamily=GOSTRUS Type A;" parent="-3bvXb9xsOaprucixAK7-1" vertex="1">
          <mxGeometry x="1437.1279999999906" y="1012.7749999999993" width="19.685" height="59.055" as="geometry" />
        </mxCell>
        <mxCell id="-3bvXb9xsOaprucixAK7-68" value="" style="rounded=0;whiteSpace=wrap;html=1;strokeWidth=1;fillColor=none;fontFamily=GOSTRUS Type A;" parent="-3bvXb9xsOaprucixAK7-1" vertex="1">
          <mxGeometry x="1456.77499999999" y="1012.8219999999993" width="19.685" height="59.055" as="geometry" />
        </mxCell>
        <mxCell id="-3bvXb9xsOaprucixAK7-69" value="" style="rounded=0;whiteSpace=wrap;html=1;strokeWidth=1;fillColor=none;fontFamily=GOSTRUS Type A;" parent="-3bvXb9xsOaprucixAK7-1" vertex="1">
          <mxGeometry x="1476.5019999999895" y="1012.8189999999993" width="19.685" height="59.055" as="geometry" />
        </mxCell>
        <mxCell id="-3bvXb9xsOaprucixAK7-70" value="Копировал" style="text;html=1;strokeColor=none;fillColor=none;align=center;verticalAlign=middle;whiteSpace=wrap;rounded=0;fontFamily=GOSTRUS Type A;fontSize=12;fontStyle=2" parent="-3bvXb9xsOaprucixAK7-1" vertex="1">
          <mxGeometry x="1161.5" y="1148.71" width="275.5" height="20" as="geometry" />
        </mxCell>
        <mxCell id="-3bvXb9xsOaprucixAK7-71" value="Формат А3" style="text;html=1;strokeColor=none;fillColor=none;align=center;verticalAlign=middle;whiteSpace=wrap;rounded=0;fontFamily=GOSTRUS Type A;fontSize=12;fontStyle=2" parent="-3bvXb9xsOaprucixAK7-1" vertex="1">
          <mxGeometry x="1436.0729999999908" y="1148.71" width="196.84" height="20" as="geometry" />
        </mxCell>
        <mxCell id="-3bvXb9xsOaprucixAK7-72" value="" style="group" parent="-3bvXb9xsOaprucixAK7-1" vertex="1" connectable="0">
          <mxGeometry x="1062.8330000000014" y="1091.5229999999997" width="453.0329999999999" height="58.47700000000032" as="geometry" />
        </mxCell>
        <mxCell id="-3bvXb9xsOaprucixAK7-73" value="" style="endArrow=none;html=1;strokeWidth=2;strokeColor=#004C99;exitX=0;exitY=0;exitDx=0;exitDy=0;entryX=1;entryY=0;entryDx=0;entryDy=0;fontFamily=GOSTRUS Type A;" parent="-3bvXb9xsOaprucixAK7-72" source="-3bvXb9xsOaprucixAK7-6" target="-3bvXb9xsOaprucixAK7-55" edge="1">
          <mxGeometry width="50" height="50" relative="1" as="geometry">
            <mxPoint x="86" y="-76.52299999999968" as="sourcePoint" />
            <mxPoint x="136" y="-126.52299999999968" as="targetPoint" />
          </mxGeometry>
        </mxCell>
        <mxCell id="-3bvXb9xsOaprucixAK7-74" value="" style="endArrow=none;html=1;strokeColor=#004C99;strokeWidth=2;entryX=0;entryY=0;entryDx=0;entryDy=0;exitX=0;exitY=1;exitDx=0;exitDy=0;fontFamily=GOSTRUS Type A;fontSize=14;" parent="-3bvXb9xsOaprucixAK7-72" source="-3bvXb9xsOaprucixAK7-48" target="-3bvXb9xsOaprucixAK7-6" edge="1">
          <mxGeometry width="50" height="50" relative="1" as="geometry">
            <mxPoint x="169" y="-88.52299999999968" as="sourcePoint" />
            <mxPoint x="219" y="-138.52299999999968" as="targetPoint" />
          </mxGeometry>
        </mxCell>
        <mxCell id="-3bvXb9xsOaprucixAK7-75" value="" style="endArrow=none;html=1;strokeColor=#004C99;strokeWidth=2;entryX=0;entryY=0;entryDx=0;entryDy=0;exitX=1;exitY=1;exitDx=0;exitDy=0;fontFamily=GOSTRUS Type A;fontSize=14;" parent="-3bvXb9xsOaprucixAK7-72" source="-3bvXb9xsOaprucixAK7-10" target="-3bvXb9xsOaprucixAK7-11" edge="1">
          <mxGeometry width="50" height="50" relative="1" as="geometry">
            <mxPoint x="169" y="-88.52299999999968" as="sourcePoint" />
            <mxPoint x="219" y="-138.52299999999968" as="targetPoint" />
          </mxGeometry>
        </mxCell>
        <mxCell id="-3bvXb9xsOaprucixAK7-76" value="" style="endArrow=none;html=1;strokeColor=#004C99;strokeWidth=2;entryX=0;entryY=0;entryDx=0;entryDy=0;exitX=0;exitY=1;exitDx=0;exitDy=0;fontFamily=GOSTRUS Type A;fontSize=14;" parent="-3bvXb9xsOaprucixAK7-72" source="-3bvXb9xsOaprucixAK7-53" target="-3bvXb9xsOaprucixAK7-16" edge="1">
          <mxGeometry width="50" height="50" relative="1" as="geometry">
            <mxPoint x="141" y="-65.52299999999968" as="sourcePoint" />
            <mxPoint x="191" y="-115.52299999999968" as="targetPoint" />
          </mxGeometry>
        </mxCell>
        <mxCell id="-3bvXb9xsOaprucixAK7-77" value="" style="endArrow=none;html=1;strokeColor=#004C99;strokeWidth=2;entryX=0;entryY=0;entryDx=0;entryDy=0;fontFamily=GOSTRUS Type A;fontSize=14;" parent="-3bvXb9xsOaprucixAK7-72" target="-3bvXb9xsOaprucixAK7-21" edge="1">
          <mxGeometry width="50" height="50" relative="1" as="geometry">
            <mxPoint y="58.47700000000032" as="sourcePoint" />
            <mxPoint x="191" y="-115.52299999999968" as="targetPoint" />
          </mxGeometry>
        </mxCell>
        <mxCell id="-3bvXb9xsOaprucixAK7-78" value="" style="endArrow=none;html=1;strokeColor=#004C99;strokeWidth=2;entryX=0;entryY=0;entryDx=0;entryDy=0;exitX=0;exitY=1;exitDx=0;exitDy=0;fontFamily=GOSTRUS Type A;fontSize=14;" parent="-3bvXb9xsOaprucixAK7-72" source="-3bvXb9xsOaprucixAK7-41" target="-3bvXb9xsOaprucixAK7-31" edge="1">
          <mxGeometry width="50" height="50" relative="1" as="geometry">
            <mxPoint x="141" y="-65.52299999999968" as="sourcePoint" />
            <mxPoint x="58" y="-158.52299999999968" as="targetPoint" />
          </mxGeometry>
        </mxCell>
        <mxCell id="-3bvXb9xsOaprucixAK7-79" value="" style="endArrow=none;html=1;strokeColor=#004C99;strokeWidth=2;entryX=0;entryY=0;entryDx=0;entryDy=0;exitX=1;exitY=1;exitDx=0;exitDy=0;fontFamily=GOSTRUS Type A;fontSize=14;" parent="-3bvXb9xsOaprucixAK7-72" source="-3bvXb9xsOaprucixAK7-41" target="-3bvXb9xsOaprucixAK7-55" edge="1">
          <mxGeometry width="50" height="50" relative="1" as="geometry">
            <mxPoint x="66" y="-57.52299999999968" as="sourcePoint" />
            <mxPoint x="116" y="-107.52299999999968" as="targetPoint" />
          </mxGeometry>
        </mxCell>
        <mxCell id="-3bvXb9xsOaprucixAK7-80" value="" style="endArrow=none;html=1;strokeColor=#004C99;strokeWidth=2;exitX=0;exitY=1;exitDx=0;exitDy=0;entryX=1;entryY=0;entryDx=0;entryDy=0;fontFamily=GOSTRUS Type A;fontSize=14;" parent="-3bvXb9xsOaprucixAK7-72" source="-3bvXb9xsOaprucixAK7-9" target="-3bvXb9xsOaprucixAK7-35" edge="1">
          <mxGeometry width="50" height="50" relative="1" as="geometry">
            <mxPoint x="58" y="-96.52299999999968" as="sourcePoint" />
            <mxPoint x="108" y="-146.52299999999968" as="targetPoint" />
          </mxGeometry>
        </mxCell>
        <mxCell id="-3bvXb9xsOaprucixAK7-81" value="" style="endArrow=none;html=1;strokeColor=#004C99;strokeWidth=2;exitX=0;exitY=0;exitDx=0;exitDy=0;entryX=1;entryY=0;entryDx=0;entryDy=0;fontFamily=GOSTRUS Type A;fontSize=14;" parent="-3bvXb9xsOaprucixAK7-72" source="-3bvXb9xsOaprucixAK7-43" target="-3bvXb9xsOaprucixAK7-36" edge="1">
          <mxGeometry width="50" height="50" relative="1" as="geometry">
            <mxPoint x="11" y="-6.5229999999996835" as="sourcePoint" />
            <mxPoint x="61" y="-56.52299999999968" as="targetPoint" />
          </mxGeometry>
        </mxCell>
        <mxCell id="-3bvXb9xsOaprucixAK7-83" value="" style="endArrow=none;html=1;strokeColor=#004C99;strokeWidth=2;entryX=1;entryY=0;entryDx=0;entryDy=0;exitX=1;exitY=1;exitDx=0;exitDy=0;fontFamily=GOSTRUS Type A;" parent="-3bvXb9xsOaprucixAK7-72" source="-3bvXb9xsOaprucixAK7-3" target="-3bvXb9xsOaprucixAK7-55" edge="1">
          <mxGeometry width="50" height="50" relative="1" as="geometry">
            <mxPoint x="169" y="-88.52299999999968" as="sourcePoint" />
            <mxPoint x="219" y="-138.52299999999968" as="targetPoint" />
          </mxGeometry>
        </mxCell>
        <mxCell id="-3bvXb9xsOaprucixAK7-84" value="" style="endArrow=none;html=1;strokeColor=#004C99;strokeWidth=2;exitX=0;exitY=0;exitDx=0;exitDy=0;entryX=1;entryY=0;entryDx=0;entryDy=0;fontFamily=GOSTRUS Type A;" parent="-3bvXb9xsOaprucixAK7-72" source="-3bvXb9xsOaprucixAK7-56" target="-3bvXb9xsOaprucixAK7-61" edge="1">
          <mxGeometry width="50" height="50" relative="1" as="geometry">
            <mxPoint x="235" y="-21.522999999999683" as="sourcePoint" />
            <mxPoint x="285" y="-71.52299999999968" as="targetPoint" />
          </mxGeometry>
        </mxCell>
        <mxCell id="-3bvXb9xsOaprucixAK7-85" value="" style="endArrow=none;html=1;strokeColor=#004C99;strokeWidth=2;exitX=0;exitY=1;exitDx=0;exitDy=0;entryX=1;entryY=1;entryDx=0;entryDy=0;fontFamily=GOSTRUS Type A;" parent="-3bvXb9xsOaprucixAK7-72" source="-3bvXb9xsOaprucixAK7-56" target="-3bvXb9xsOaprucixAK7-60" edge="1">
          <mxGeometry width="50" height="50" relative="1" as="geometry">
            <mxPoint x="235" y="-21.522999999999683" as="sourcePoint" />
            <mxPoint x="285" y="-71.52299999999968" as="targetPoint" />
          </mxGeometry>
        </mxCell>
        <mxCell id="-3bvXb9xsOaprucixAK7-86" value="" style="endArrow=none;html=1;strokeColor=#004C99;strokeWidth=2;entryX=1;entryY=0;entryDx=0;entryDy=0;exitX=0;exitY=1;exitDx=0;exitDy=0;fontFamily=GOSTRUS Type A;" parent="-3bvXb9xsOaprucixAK7-72" source="-3bvXb9xsOaprucixAK7-58" target="-3bvXb9xsOaprucixAK7-56" edge="1">
          <mxGeometry width="50" height="50" relative="1" as="geometry">
            <mxPoint x="235" y="-21.522999999999683" as="sourcePoint" />
            <mxPoint x="285" y="-71.52299999999968" as="targetPoint" />
          </mxGeometry>
        </mxCell>
        <mxCell id="-3bvXb9xsOaprucixAK7-87" value="" style="endArrow=none;html=1;strokeColor=#004C99;strokeWidth=2;entryX=1;entryY=0;entryDx=0;entryDy=0;exitX=0;exitY=1;exitDx=0;exitDy=0;fontFamily=GOSTRUS Type A;fontSize=14;" parent="-3bvXb9xsOaprucixAK7-72" source="-3bvXb9xsOaprucixAK7-63" target="-3bvXb9xsOaprucixAK7-66" edge="1">
          <mxGeometry width="50" height="50" relative="1" as="geometry">
            <mxPoint x="235" y="-21.522999999999683" as="sourcePoint" />
            <mxPoint x="285" y="-71.52299999999968" as="targetPoint" />
          </mxGeometry>
        </mxCell>
        <mxCell id="-3bvXb9xsOaprucixAK7-88" value="" style="endArrow=none;html=1;strokeColor=#004C99;strokeWidth=2;entryX=0;entryY=0;entryDx=0;entryDy=0;exitX=0;exitY=1;exitDx=0;exitDy=0;fontFamily=GOSTRUS Type A;" parent="-3bvXb9xsOaprucixAK7-72" source="-3bvXb9xsOaprucixAK7-65" target="-3bvXb9xsOaprucixAK7-62" edge="1">
          <mxGeometry width="50" height="50" relative="1" as="geometry">
            <mxPoint x="235" y="-21.522999999999683" as="sourcePoint" />
            <mxPoint x="285" y="-71.52299999999968" as="targetPoint" />
          </mxGeometry>
        </mxCell>
        <mxCell id="-3bvXb9xsOaprucixAK7-89" value="" style="endArrow=none;html=1;strokeColor=#004C99;strokeWidth=2;entryX=1;entryY=0;entryDx=0;entryDy=0;exitX=0;exitY=1;exitDx=0;exitDy=0;fontFamily=GOSTRUS Type A;" parent="-3bvXb9xsOaprucixAK7-72" source="-3bvXb9xsOaprucixAK7-66" target="-3bvXb9xsOaprucixAK7-62" edge="1">
          <mxGeometry width="50" height="50" relative="1" as="geometry">
            <mxPoint x="235" y="-21.522999999999683" as="sourcePoint" />
            <mxPoint x="285" y="-71.52299999999968" as="targetPoint" />
          </mxGeometry>
        </mxCell>
        <mxCell id="-3bvXb9xsOaprucixAK7-90" value="" style="endArrow=none;html=1;strokeColor=#004C99;strokeWidth=2;entryX=1;entryY=1;entryDx=0;entryDy=0;exitX=0;exitY=0;exitDx=0;exitDy=0;fontFamily=GOSTRUS Type A;fontSize=14;" parent="-3bvXb9xsOaprucixAK7-72" source="-3bvXb9xsOaprucixAK7-59" target="-3bvXb9xsOaprucixAK7-66" edge="1">
          <mxGeometry width="50" height="50" relative="1" as="geometry">
            <mxPoint x="235" y="-21.522999999999683" as="sourcePoint" />
            <mxPoint x="285" y="-71.52299999999968" as="targetPoint" />
          </mxGeometry>
        </mxCell>
        <mxCell id="-3bvXb9xsOaprucixAK7-91" value="" style="endArrow=none;html=1;strokeColor=#004C99;strokeWidth=2;entryX=0;entryY=0;entryDx=0;entryDy=0;exitX=0;exitY=0;exitDx=0;exitDy=0;fontFamily=GOSTRUS Type A;fontSize=14;" parent="-3bvXb9xsOaprucixAK7-72" target="-3bvXb9xsOaprucixAK7-60" edge="1">
          <mxGeometry width="50" height="50" relative="1" as="geometry">
            <mxPoint x="453.0329999999999" as="sourcePoint" />
            <mxPoint x="285" y="-71.52299999999968" as="targetPoint" />
          </mxGeometry>
        </mxCell>
        <mxCell id="-3bvXb9xsOaprucixAK7-92" value="Перв. примен." style="rounded=0;whiteSpace=wrap;html=1;strokeWidth=1;fillColor=none;fontFamily=GOSTRUS Type A;fontSize=14;rotation=-90;fontStyle=2" parent="-3bvXb9xsOaprucixAK7-1" vertex="1">
          <mxGeometry x="-75.80499999999996" y="128.91499999999996" width="236.22" height="19.685" as="geometry" />
        </mxCell>
        <mxCell id="-3bvXb9xsOaprucixAK7-93" value="Сопр. №" style="rounded=0;whiteSpace=wrap;html=1;strokeWidth=1;fillColor=none;fontFamily=GOSTRUS Type A;fontSize=14;rotation=-90;fontStyle=2" parent="-3bvXb9xsOaprucixAK7-1" vertex="1">
          <mxGeometry x="-75.80799999999995" y="365.08200000000005" width="236.22" height="19.685" as="geometry" />
        </mxCell>
        <mxCell id="-3bvXb9xsOaprucixAK7-94" value="" style="rounded=0;whiteSpace=wrap;html=1;strokeWidth=1;fillColor=none;fontFamily=GOSTRUS Type A;fontSize=14;rotation=-90;" parent="-3bvXb9xsOaprucixAK7-1" vertex="1">
          <mxGeometry x="-52.248000000000005" y="361.14899999999994" width="236.22" height="27.558999999999997" as="geometry" />
        </mxCell>
        <mxCell id="-3bvXb9xsOaprucixAK7-95" value="" style="rounded=0;whiteSpace=wrap;html=1;strokeWidth=1;fillColor=none;fontFamily=GOSTRUS Type A;fontSize=14;rotation=-90;" parent="-3bvXb9xsOaprucixAK7-1" vertex="1">
          <mxGeometry x="-52.250999999999934" y="124.97900000000001" width="236.22" height="27.558999999999997" as="geometry" />
        </mxCell>
        <mxCell id="-3bvXb9xsOaprucixAK7-96" value="" style="endArrow=none;html=1;fontSize=18;strokeColor=#004C99;strokeWidth=2;entryX=1;entryY=1;entryDx=0;entryDy=0;exitX=1;exitY=0;exitDx=0;exitDy=0;" parent="-3bvXb9xsOaprucixAK7-1" source="-3bvXb9xsOaprucixAK7-92" target="-3bvXb9xsOaprucixAK7-4" edge="1">
          <mxGeometry width="50" height="50" relative="1" as="geometry">
            <mxPoint x="59" y="109" as="sourcePoint" />
            <mxPoint x="109" y="59" as="targetPoint" />
          </mxGeometry>
        </mxCell>
        <mxCell id="-3bvXb9xsOaprucixAK7-97" value="" style="endArrow=none;html=1;fontSize=18;strokeColor=#004C99;strokeWidth=2;exitX=1;exitY=0;exitDx=0;exitDy=0;entryX=0;entryY=0;entryDx=0;entryDy=0;" parent="-3bvXb9xsOaprucixAK7-1" source="-3bvXb9xsOaprucixAK7-92" target="-3bvXb9xsOaprucixAK7-93" edge="1">
          <mxGeometry width="50" height="50" relative="1" as="geometry">
            <mxPoint x="59" y="109" as="sourcePoint" />
            <mxPoint x="109" y="59" as="targetPoint" />
          </mxGeometry>
        </mxCell>
        <mxCell id="-3bvXb9xsOaprucixAK7-98" value="" style="endArrow=none;html=1;fontSize=18;strokeColor=#004C99;strokeWidth=2;exitX=0;exitY=0;exitDx=0;exitDy=0;entryX=0;entryY=1;entryDx=0;entryDy=0;" parent="-3bvXb9xsOaprucixAK7-1" source="-3bvXb9xsOaprucixAK7-93" target="-3bvXb9xsOaprucixAK7-94" edge="1">
          <mxGeometry width="50" height="50" relative="1" as="geometry">
            <mxPoint x="59" y="483" as="sourcePoint" />
            <mxPoint x="109" y="433" as="targetPoint" />
          </mxGeometry>
        </mxCell>
        <mxCell id="-3bvXb9xsOaprucixAK7-99" value="" style="endArrow=none;html=1;fontSize=18;strokeColor=#004C99;strokeWidth=2;exitX=0;exitY=1;exitDx=0;exitDy=0;entryX=1;entryY=1;entryDx=0;entryDy=0;" parent="-3bvXb9xsOaprucixAK7-1" source="-3bvXb9xsOaprucixAK7-94" target="-3bvXb9xsOaprucixAK7-95" edge="1">
          <mxGeometry width="50" height="50" relative="1" as="geometry">
            <mxPoint x="59" y="483" as="sourcePoint" />
            <mxPoint x="109" y="433" as="targetPoint" />
          </mxGeometry>
        </mxCell>
        <mxCell id="-3bvXb9xsOaprucixAK7-100" value="Инв. № подл." style="rounded=0;whiteSpace=wrap;html=1;strokeWidth=1;fillColor=none;fontFamily=GOSTRUS Type A;fontSize=14;rotation=-90;fontStyle=2" parent="-3bvXb9xsOaprucixAK7-1" vertex="1">
          <mxGeometry x="-6.865000000000009" y="1091.4850000000001" width="98.425" height="19.685" as="geometry" />
        </mxCell>
        <mxCell id="-3bvXb9xsOaprucixAK7-101" value="Взам. инв. №" style="rounded=0;whiteSpace=wrap;html=1;strokeWidth=1;fillColor=none;fontFamily=GOSTRUS Type A;fontSize=14;rotation=-90;fontStyle=2" parent="-3bvXb9xsOaprucixAK7-1" vertex="1">
          <mxGeometry x="-6.868000000000052" y="855.262" width="98.425" height="19.685" as="geometry" />
        </mxCell>
        <mxCell id="-3bvXb9xsOaprucixAK7-102" value="Инв. № дубл." style="rounded=0;whiteSpace=wrap;html=1;strokeWidth=1;fillColor=none;fontFamily=GOSTRUS Type A;fontSize=14;rotation=-90;fontStyle=2" parent="-3bvXb9xsOaprucixAK7-1" vertex="1">
          <mxGeometry x="-6.871000000000095" y="756.839" width="98.425" height="19.685" as="geometry" />
        </mxCell>
        <mxCell id="-3bvXb9xsOaprucixAK7-103" value="Подп. и дата" style="rounded=0;whiteSpace=wrap;html=1;strokeWidth=1;fillColor=none;fontFamily=GOSTRUS Type A;fontSize=14;rotation=-90;fontStyle=2" parent="-3bvXb9xsOaprucixAK7-1" vertex="1">
          <mxGeometry x="-26.554000000000087" y="638.7260000000001" width="137.795" height="19.685" as="geometry" />
        </mxCell>
        <mxCell id="-3bvXb9xsOaprucixAK7-104" value="Подп. и дата" style="rounded=0;whiteSpace=wrap;html=1;strokeWidth=1;fillColor=none;fontFamily=GOSTRUS Type A;fontSize=14;rotation=-90;fontStyle=2" parent="-3bvXb9xsOaprucixAK7-1" vertex="1">
          <mxGeometry x="-26.547000000000025" y="973.373" width="137.795" height="19.685" as="geometry" />
        </mxCell>
        <mxCell id="-3bvXb9xsOaprucixAK7-105" value="" style="rounded=0;whiteSpace=wrap;html=1;strokeWidth=1;fillColor=none;fontFamily=GOSTRUS Type A;fontSize=14;rotation=-90;" parent="-3bvXb9xsOaprucixAK7-1" vertex="1">
          <mxGeometry x="16.752000000000066" y="1087.5520000000001" width="98.425" height="27.558999999999997" as="geometry" />
        </mxCell>
        <mxCell id="-3bvXb9xsOaprucixAK7-106" value="" style="rounded=0;whiteSpace=wrap;html=1;strokeWidth=1;fillColor=none;fontFamily=GOSTRUS Type A;fontSize=14;rotation=-90;" parent="-3bvXb9xsOaprucixAK7-1" vertex="1">
          <mxGeometry x="16.749000000000024" y="851.329" width="98.425" height="27.558999999999997" as="geometry" />
        </mxCell>
        <mxCell id="-3bvXb9xsOaprucixAK7-107" value="" style="rounded=0;whiteSpace=wrap;html=1;strokeWidth=1;fillColor=none;fontFamily=GOSTRUS Type A;fontSize=14;rotation=-90;" parent="-3bvXb9xsOaprucixAK7-1" vertex="1">
          <mxGeometry x="16.74599999999998" y="752.9060000000001" width="98.425" height="27.558999999999997" as="geometry" />
        </mxCell>
        <mxCell id="-3bvXb9xsOaprucixAK7-108" value="" style="rounded=0;whiteSpace=wrap;html=1;strokeWidth=1;fillColor=none;fontFamily=GOSTRUS Type A;fontSize=14;rotation=-90;" parent="-3bvXb9xsOaprucixAK7-1" vertex="1">
          <mxGeometry x="-2.937000000000012" y="634.7930000000001" width="137.795" height="27.558999999999997" as="geometry" />
        </mxCell>
        <mxCell id="-3bvXb9xsOaprucixAK7-109" value="" style="rounded=0;whiteSpace=wrap;html=1;strokeWidth=1;fillColor=none;fontFamily=GOSTRUS Type A;fontSize=14;rotation=-90;" parent="-3bvXb9xsOaprucixAK7-1" vertex="1">
          <mxGeometry x="-2.92999999999995" y="969.44" width="137.795" height="27.558999999999997" as="geometry" />
        </mxCell>
        <mxCell id="-3bvXb9xsOaprucixAK7-110" value="" style="endArrow=none;html=1;fontSize=18;strokeColor=#004C99;strokeWidth=2;entryX=1;entryY=1;entryDx=0;entryDy=0;exitX=0;exitY=1;exitDx=0;exitDy=0;" parent="-3bvXb9xsOaprucixAK7-1" source="-3bvXb9xsOaprucixAK7-105" target="-3bvXb9xsOaprucixAK7-108" edge="1">
          <mxGeometry width="50" height="50" relative="1" as="geometry">
            <mxPoint x="87" y="928" as="sourcePoint" />
            <mxPoint x="137" y="878" as="targetPoint" />
          </mxGeometry>
        </mxCell>
        <mxCell id="-3bvXb9xsOaprucixAK7-111" value="" style="endArrow=none;html=1;fontSize=18;strokeColor=#004C99;strokeWidth=2;exitX=0;exitY=1;exitDx=0;exitDy=0;entryX=0;entryY=0;entryDx=0;entryDy=0;" parent="-3bvXb9xsOaprucixAK7-1" source="-3bvXb9xsOaprucixAK7-105" target="-3bvXb9xsOaprucixAK7-100" edge="1">
          <mxGeometry width="50" height="50" relative="1" as="geometry">
            <mxPoint x="87" y="928" as="sourcePoint" />
            <mxPoint x="137" y="878" as="targetPoint" />
          </mxGeometry>
        </mxCell>
        <mxCell id="-3bvXb9xsOaprucixAK7-112" value="" style="endArrow=none;html=1;fontSize=18;strokeColor=#004C99;strokeWidth=2;exitX=0;exitY=0;exitDx=0;exitDy=0;entryX=1;entryY=0;entryDx=0;entryDy=0;fontStyle=2" parent="-3bvXb9xsOaprucixAK7-1" source="-3bvXb9xsOaprucixAK7-100" target="-3bvXb9xsOaprucixAK7-103" edge="1">
          <mxGeometry width="50" height="50" relative="1" as="geometry">
            <mxPoint x="91" y="1093" as="sourcePoint" />
            <mxPoint x="141" y="1043" as="targetPoint" />
          </mxGeometry>
        </mxCell>
        <mxCell id="-3bvXb9xsOaprucixAK7-113" value="" style="endArrow=none;html=1;fontSize=18;strokeColor=#004C99;strokeWidth=2;exitX=1;exitY=0;exitDx=0;exitDy=0;entryX=1;entryY=1;entryDx=0;entryDy=0;" parent="-3bvXb9xsOaprucixAK7-1" source="-3bvXb9xsOaprucixAK7-103" target="-3bvXb9xsOaprucixAK7-108" edge="1">
          <mxGeometry width="50" height="50" relative="1" as="geometry">
            <mxPoint x="51" y="621" as="sourcePoint" />
            <mxPoint x="71" y="579" as="targetPoint" />
          </mxGeometry>
        </mxCell>
        <mxCell id="fhD7Rd3enIUJqCCpISq0-0" value="" style="edgeStyle=orthogonalEdgeStyle;rounded=0;orthogonalLoop=1;jettySize=auto;html=1;startArrow=none;startFill=0;" parent="-3bvXb9xsOaprucixAK7-1" source="fhD7Rd3enIUJqCCpISq0-2" target="fhD7Rd3enIUJqCCpISq0-9" edge="1">
          <mxGeometry relative="1" as="geometry" />
        </mxCell>
        <mxCell id="fhD7Rd3enIUJqCCpISq0-1" value="" style="edgeStyle=orthogonalEdgeStyle;rounded=0;orthogonalLoop=1;jettySize=auto;html=1;" parent="-3bvXb9xsOaprucixAK7-1" source="fhD7Rd3enIUJqCCpISq0-2" target="fhD7Rd3enIUJqCCpISq0-5" edge="1">
          <mxGeometry relative="1" as="geometry">
            <Array as="points">
              <mxPoint x="900.7900000000002" y="442.81" />
              <mxPoint x="900.7900000000002" y="442.81" />
            </Array>
          </mxGeometry>
        </mxCell>
        <mxCell id="_b4IaENyZN27dDxWxyfw-1" value="" style="edgeStyle=orthogonalEdgeStyle;rounded=0;orthogonalLoop=1;jettySize=auto;html=1;" edge="1" parent="-3bvXb9xsOaprucixAK7-1" source="fhD7Rd3enIUJqCCpISq0-2" target="_b4IaENyZN27dDxWxyfw-0">
          <mxGeometry relative="1" as="geometry" />
        </mxCell>
        <mxCell id="fhD7Rd3enIUJqCCpISq0-2" value="MCU" style="rounded=0;whiteSpace=wrap;html=1;" parent="-3bvXb9xsOaprucixAK7-1" vertex="1">
          <mxGeometry x="652.5300000000002" y="409.45" width="192.91" height="66.93" as="geometry" />
        </mxCell>
        <mxCell id="fhD7Rd3enIUJqCCpISq0-3" value="" style="edgeStyle=orthogonalEdgeStyle;rounded=0;orthogonalLoop=1;jettySize=auto;html=1;" parent="-3bvXb9xsOaprucixAK7-1" source="fhD7Rd3enIUJqCCpISq0-5" target="fhD7Rd3enIUJqCCpISq0-7" edge="1">
          <mxGeometry relative="1" as="geometry">
            <Array as="points">
              <mxPoint x="1165" y="443" />
              <mxPoint x="1165" y="534" />
            </Array>
          </mxGeometry>
        </mxCell>
        <mxCell id="fhD7Rd3enIUJqCCpISq0-4" style="edgeStyle=orthogonalEdgeStyle;rounded=0;orthogonalLoop=1;jettySize=auto;html=1;entryX=0;entryY=0.5;entryDx=0;entryDy=0;" parent="-3bvXb9xsOaprucixAK7-1" source="fhD7Rd3enIUJqCCpISq0-5" target="fhD7Rd3enIUJqCCpISq0-6" edge="1">
          <mxGeometry relative="1" as="geometry">
            <Array as="points">
              <mxPoint x="1165" y="443" />
              <mxPoint x="1165" y="361" />
            </Array>
          </mxGeometry>
        </mxCell>
        <mxCell id="fhD7Rd3enIUJqCCpISq0-5" value="Драйвер RS-485" style="rounded=0;whiteSpace=wrap;html=1;" parent="-3bvXb9xsOaprucixAK7-1" vertex="1">
          <mxGeometry x="945.0400000000002" y="403.5499999999999" width="145.67" height="78.74" as="geometry" />
        </mxCell>
        <mxCell id="fhD7Rd3enIUJqCCpISq0-6" value="Разъем 1 RS-485" style="rounded=0;whiteSpace=wrap;html=1;" parent="-3bvXb9xsOaprucixAK7-1" vertex="1">
          <mxGeometry x="1237.2999999999997" y="330.71" width="120" height="60" as="geometry" />
        </mxCell>
        <mxCell id="fhD7Rd3enIUJqCCpISq0-7" value="Разъем 2 RS-485" style="rounded=0;whiteSpace=wrap;html=1;" parent="-3bvXb9xsOaprucixAK7-1" vertex="1">
          <mxGeometry x="1231.27" y="503.94" width="120" height="60" as="geometry" />
        </mxCell>
        <mxCell id="fhD7Rd3enIUJqCCpISq0-8" value="" style="edgeStyle=orthogonalEdgeStyle;rounded=0;orthogonalLoop=1;jettySize=auto;html=1;" parent="-3bvXb9xsOaprucixAK7-1" source="fhD7Rd3enIUJqCCpISq0-9" target="fhD7Rd3enIUJqCCpISq0-15" edge="1">
          <mxGeometry relative="1" as="geometry" />
        </mxCell>
        <mxCell id="fhD7Rd3enIUJqCCpISq0-9" value="Ключ электрический" style="rounded=0;whiteSpace=wrap;html=1;" parent="-3bvXb9xsOaprucixAK7-1" vertex="1">
          <mxGeometry x="688.9900000000002" y="674.1499999999999" width="120" height="60" as="geometry" />
        </mxCell>
        <mxCell id="fhD7Rd3enIUJqCCpISq0-10" value="" style="edgeStyle=orthogonalEdgeStyle;rounded=0;orthogonalLoop=1;jettySize=auto;html=1;" parent="-3bvXb9xsOaprucixAK7-1" source="fhD7Rd3enIUJqCCpISq0-11" target="fhD7Rd3enIUJqCCpISq0-2" edge="1">
          <mxGeometry relative="1" as="geometry" />
        </mxCell>
        <mxCell id="fhD7Rd3enIUJqCCpISq0-42" style="edgeStyle=orthogonalEdgeStyle;rounded=0;orthogonalLoop=1;jettySize=auto;html=1;" parent="-3bvXb9xsOaprucixAK7-1" source="fhD7Rd3enIUJqCCpISq0-11" edge="1">
          <mxGeometry relative="1" as="geometry">
            <mxPoint x="945" y="425" as="targetPoint" />
            <Array as="points">
              <mxPoint x="929" y="235" />
              <mxPoint x="929" y="425" />
            </Array>
          </mxGeometry>
        </mxCell>
        <mxCell id="fhD7Rd3enIUJqCCpISq0-11" value="DC-DC" style="rounded=0;whiteSpace=wrap;html=1;" parent="-3bvXb9xsOaprucixAK7-1" vertex="1">
          <mxGeometry x="688.9900000000002" y="204.72000000000003" width="120" height="60" as="geometry" />
        </mxCell>
        <mxCell id="fhD7Rd3enIUJqCCpISq0-12" value="" style="edgeStyle=orthogonalEdgeStyle;rounded=0;orthogonalLoop=1;jettySize=auto;html=1;" parent="-3bvXb9xsOaprucixAK7-1" source="fhD7Rd3enIUJqCCpISq0-14" target="fhD7Rd3enIUJqCCpISq0-9" edge="1">
          <mxGeometry relative="1" as="geometry" />
        </mxCell>
        <mxCell id="fhD7Rd3enIUJqCCpISq0-25" style="edgeStyle=orthogonalEdgeStyle;rounded=0;orthogonalLoop=1;jettySize=auto;html=1;entryX=0;entryY=0.5;entryDx=0;entryDy=0;" parent="-3bvXb9xsOaprucixAK7-1" source="fhD7Rd3enIUJqCCpISq0-14" target="fhD7Rd3enIUJqCCpISq0-11" edge="1">
          <mxGeometry relative="1" as="geometry">
            <Array as="points">
              <mxPoint x="316" y="235" />
            </Array>
            <mxPoint x="594.5000000000002" y="234.72000000000003" as="targetPoint" />
          </mxGeometry>
        </mxCell>
        <mxCell id="fhD7Rd3enIUJqCCpISq0-14" value="Вход ключа Male" style="rounded=0;whiteSpace=wrap;html=1;" parent="-3bvXb9xsOaprucixAK7-1" vertex="1">
          <mxGeometry x="254.0100000000001" y="674.1499999999999" width="120" height="60" as="geometry" />
        </mxCell>
        <mxCell id="fhD7Rd3enIUJqCCpISq0-15" value="Выход ключа Female" style="rounded=0;whiteSpace=wrap;html=1;" parent="-3bvXb9xsOaprucixAK7-1" vertex="1">
          <mxGeometry x="948.3299999999999" y="674.1499999999999" width="120" height="60" as="geometry" />
        </mxCell>
        <mxCell id="fhD7Rd3enIUJqCCpISq0-16" value="DA3&amp;nbsp;&lt;div&gt;K7803MT-500R4&lt;/div&gt;" style="text;html=1;align=left;verticalAlign=middle;whiteSpace=wrap;rounded=0;" parent="-3bvXb9xsOaprucixAK7-1" vertex="1">
          <mxGeometry x="686.99" y="173.23000000000002" width="137.79" height="30" as="geometry" />
        </mxCell>
        <mxCell id="fhD7Rd3enIUJqCCpISq0-17" value="DA2&amp;nbsp;&lt;div&gt;TPT7576H-VS1R&lt;/div&gt;" style="text;html=1;align=left;verticalAlign=middle;whiteSpace=wrap;rounded=0;" parent="-3bvXb9xsOaprucixAK7-1" vertex="1">
          <mxGeometry x="940.94" y="370.0800000000001" width="137.79" height="30" as="geometry" />
        </mxCell>
        <mxCell id="fhD7Rd3enIUJqCCpISq0-18" value="X4&lt;br&gt;&lt;div&gt;L-KLS12-123-4P4C-W/0-1-01&lt;/div&gt;" style="text;html=1;align=left;verticalAlign=middle;whiteSpace=wrap;rounded=0;" parent="-3bvXb9xsOaprucixAK7-1" vertex="1">
          <mxGeometry x="1233.25" y="295.71" width="167.31" height="30" as="geometry" />
        </mxCell>
        <mxCell id="fhD7Rd3enIUJqCCpISq0-19" value="X5&lt;br&gt;&lt;div&gt;L-KLS12-123-4P4C-W/0-1-01&lt;/div&gt;" style="text;html=1;align=left;verticalAlign=middle;whiteSpace=wrap;rounded=0;" parent="-3bvXb9xsOaprucixAK7-1" vertex="1">
          <mxGeometry x="1227.3400000000001" y="468.49999999999994" width="167.31" height="30" as="geometry" />
        </mxCell>
        <mxCell id="fhD7Rd3enIUJqCCpISq0-20" value="X2&lt;div&gt;ATXPCIE8&lt;/div&gt;" style="text;html=1;align=left;verticalAlign=middle;whiteSpace=wrap;rounded=0;" parent="-3bvXb9xsOaprucixAK7-1" vertex="1">
          <mxGeometry x="945.3800000000001" y="638.73" width="167.31" height="30" as="geometry" />
        </mxCell>
        <mxCell id="fhD7Rd3enIUJqCCpISq0-21" value="DA1&lt;div&gt;BTS6143D&lt;/div&gt;" style="text;html=1;align=left;verticalAlign=middle;whiteSpace=wrap;rounded=0;" parent="-3bvXb9xsOaprucixAK7-1" vertex="1">
          <mxGeometry x="684.0200000000002" y="638.73" width="167.31" height="30" as="geometry" />
        </mxCell>
        <mxCell id="fhD7Rd3enIUJqCCpISq0-22" value="DD1&lt;div&gt;STM32F030C8T6&lt;/div&gt;" style="text;html=1;align=left;verticalAlign=middle;whiteSpace=wrap;rounded=0;" parent="-3bvXb9xsOaprucixAK7-1" vertex="1">
          <mxGeometry x="648.5900000000001" y="373.5500000000001" width="137.79" height="30" as="geometry" />
        </mxCell>
        <mxCell id="fhD7Rd3enIUJqCCpISq0-23" value="X1&amp;nbsp;&lt;div&gt;ATXPCIE8&lt;/div&gt;" style="text;html=1;align=left;verticalAlign=middle;whiteSpace=wrap;rounded=0;" parent="-3bvXb9xsOaprucixAK7-1" vertex="1">
          <mxGeometry x="248.03000000000003" y="638.73" width="167.31" height="30" as="geometry" />
        </mxCell>
        <mxCell id="fhD7Rd3enIUJqCCpISq0-28" value="&lt;font style=&quot;font-size: 8px;&quot;&gt;Выходной&amp;nbsp;&lt;/font&gt;&lt;div&gt;&lt;font style=&quot;font-size: 8px;&quot;&gt;информационный&lt;/font&gt;&lt;/div&gt;&lt;div&gt;&lt;font style=&quot;font-size: 8px;&quot;&gt;сигнал&lt;/font&gt;&lt;/div&gt;" style="text;html=1;align=center;verticalAlign=middle;whiteSpace=wrap;rounded=0;" parent="-3bvXb9xsOaprucixAK7-1" vertex="1">
          <mxGeometry x="851.4300000000001" y="403.55" width="81.72" height="30" as="geometry" />
        </mxCell>
        <mxCell id="fhD7Rd3enIUJqCCpISq0-29" value="&lt;span style=&quot;font-size: 8px;&quot;&gt;=3,3 В&lt;/span&gt;&lt;div&gt;&lt;span style=&quot;font-size: 8px;&quot;&gt;питание&lt;/span&gt;&lt;/div&gt;&lt;div&gt;&lt;span style=&quot;font-size: 8px;&quot;&gt;микроконтроллера&lt;/span&gt;&lt;/div&gt;" style="text;html=1;align=center;verticalAlign=middle;whiteSpace=wrap;rounded=0;" parent="-3bvXb9xsOaprucixAK7-1" vertex="1">
          <mxGeometry x="745" y="325.71" width="81.72" height="30" as="geometry" />
        </mxCell>
        <mxCell id="fhD7Rd3enIUJqCCpISq0-30" value="&lt;span style=&quot;font-size: 8px;&quot;&gt;=12 В&lt;/span&gt;&lt;div&gt;&lt;span style=&quot;font-size: 8px;&quot;&gt;питание&lt;/span&gt;&lt;/div&gt;" style="text;html=1;align=center;verticalAlign=middle;whiteSpace=wrap;rounded=0;" parent="-3bvXb9xsOaprucixAK7-1" vertex="1">
          <mxGeometry x="452.76" y="203.23" width="81.72" height="30" as="geometry" />
        </mxCell>
        <mxCell id="fhD7Rd3enIUJqCCpISq0-31" value="&lt;span style=&quot;font-size: 8px;&quot;&gt;Сигнал&amp;nbsp;&lt;/span&gt;&lt;div&gt;&lt;span style=&quot;font-size: 8px;&quot;&gt;датчика&amp;nbsp;&lt;/span&gt;&lt;/div&gt;&lt;div&gt;&lt;span style=&quot;font-size: 8px;&quot;&gt;тока&lt;/span&gt;&lt;/div&gt;" style="text;html=1;align=center;verticalAlign=middle;whiteSpace=wrap;rounded=0;" parent="-3bvXb9xsOaprucixAK7-1" vertex="1">
          <mxGeometry x="743.06" y="551.18" width="81.72" height="51.18" as="geometry" />
        </mxCell>
        <mxCell id="fhD7Rd3enIUJqCCpISq0-32" value="&lt;span style=&quot;font-size: 8px;&quot;&gt;Сигнал&amp;nbsp;&lt;/span&gt;&lt;div&gt;&lt;span style=&quot;font-size: 8px;&quot;&gt;открытия&lt;/span&gt;&lt;/div&gt;&lt;div&gt;&lt;span style=&quot;font-size: 8px;&quot;&gt;ключа от&lt;/span&gt;&lt;/div&gt;&lt;div&gt;&lt;span style=&quot;font-size: 8px;&quot;&gt;микроконтроллера&lt;/span&gt;&lt;/div&gt;&lt;div&gt;&lt;span style=&quot;font-size: 8px;&quot;&gt;&lt;br&gt;&lt;/span&gt;&lt;/div&gt;" style="text;html=1;align=center;verticalAlign=middle;whiteSpace=wrap;rounded=0;" parent="-3bvXb9xsOaprucixAK7-1" vertex="1">
          <mxGeometry x="669.29" y="551.6800000000001" width="81.72" height="66.93" as="geometry" />
        </mxCell>
        <mxCell id="fhD7Rd3enIUJqCCpISq0-33" value="&lt;span style=&quot;font-size: 8px;&quot;&gt;Линия выходного&lt;/span&gt;&lt;div&gt;&lt;span style=&quot;font-size: 8px;&quot;&gt;информационного&lt;/span&gt;&lt;/div&gt;&lt;div&gt;&lt;span style=&quot;font-size: 8px;&quot;&gt;сигнала 1&lt;/span&gt;&lt;/div&gt;&lt;div&gt;&lt;span style=&quot;font-size: 8px;&quot;&gt;Протокол ModBus&lt;/span&gt;&lt;/div&gt;" style="text;html=1;align=center;verticalAlign=middle;whiteSpace=wrap;rounded=0;" parent="-3bvXb9xsOaprucixAK7-1" vertex="1">
          <mxGeometry x="1141.73" y="311.02" width="81.72" height="30" as="geometry" />
        </mxCell>
        <mxCell id="fhD7Rd3enIUJqCCpISq0-34" value="&lt;span style=&quot;font-size: 8px;&quot;&gt;Линия выходного&lt;/span&gt;&lt;div&gt;&lt;span style=&quot;font-size: 8px;&quot;&gt;информационного&lt;/span&gt;&lt;/div&gt;&lt;div&gt;&lt;span style=&quot;font-size: 8px;&quot;&gt;сигнала 2&lt;/span&gt;&lt;/div&gt;&lt;div&gt;&lt;span style=&quot;font-size: 8px;&quot;&gt;Протокол ModBus&lt;/span&gt;&lt;/div&gt;" style="text;html=1;align=center;verticalAlign=middle;whiteSpace=wrap;rounded=0;" parent="-3bvXb9xsOaprucixAK7-1" vertex="1">
          <mxGeometry x="1133.86" y="547" width="81.72" height="30" as="geometry" />
        </mxCell>
        <mxCell id="fhD7Rd3enIUJqCCpISq0-35" value="&lt;span style=&quot;font-size: 8px;&quot;&gt;Вход ключа V_IN&lt;/span&gt;" style="text;html=1;align=center;verticalAlign=middle;whiteSpace=wrap;rounded=0;" parent="-3bvXb9xsOaprucixAK7-1" vertex="1">
          <mxGeometry x="561.01" y="674.15" width="81.72" height="30" as="geometry" />
        </mxCell>
        <mxCell id="fhD7Rd3enIUJqCCpISq0-36" value="&lt;span style=&quot;font-size: 8px;&quot;&gt;Выход ключа V_OUT&lt;/span&gt;" style="text;html=1;align=center;verticalAlign=middle;whiteSpace=wrap;rounded=0;" parent="-3bvXb9xsOaprucixAK7-1" vertex="1">
          <mxGeometry x="838.58" y="674.15" width="81.72" height="30" as="geometry" />
        </mxCell>
        <mxCell id="fhD7Rd3enIUJqCCpISq0-40" value="" style="edgeStyle=orthogonalEdgeStyle;rounded=0;orthogonalLoop=1;jettySize=auto;html=1;startArrow=classic;startFill=1;endArrow=none;" parent="-3bvXb9xsOaprucixAK7-1" edge="1">
          <mxGeometry relative="1" as="geometry">
            <mxPoint x="759.84" y="476.38" as="sourcePoint" />
            <mxPoint x="759.84" y="674.38" as="targetPoint" />
          </mxGeometry>
        </mxCell>
        <mxCell id="fhD7Rd3enIUJqCCpISq0-43" value="&lt;span style=&quot;font-size: 8px;&quot;&gt;=3,3 В&lt;/span&gt;&lt;div&gt;&lt;span style=&quot;font-size: 8px;&quot;&gt;питание&lt;/span&gt;&lt;/div&gt;&lt;div&gt;&lt;span style=&quot;font-size: 8px;&quot;&gt;драйвера&lt;/span&gt;&lt;/div&gt;" style="text;html=1;align=center;verticalAlign=middle;whiteSpace=wrap;rounded=0;" parent="-3bvXb9xsOaprucixAK7-1" vertex="1">
          <mxGeometry x="851.33" y="196.85" width="81.72" height="30" as="geometry" />
        </mxCell>
        <mxCell id="-3bvXb9xsOaprucixAK7-82" value="" style="endArrow=none;html=1;strokeColor=#004C99;strokeWidth=2;exitX=-0.001;exitY=-0.049;exitDx=0;exitDy=0;entryX=1;entryY=1;entryDx=0;entryDy=0;fontFamily=GOSTRUS Type A;exitPerimeter=0;" parent="-3bvXb9xsOaprucixAK7-1" source="-3bvXb9xsOaprucixAK7-100" target="-3bvXb9xsOaprucixAK7-5" edge="1">
          <mxGeometry width="50" height="50" relative="1" as="geometry">
            <mxPoint x="1231.8330000000014" y="1003" as="sourcePoint" />
            <mxPoint x="1281.8330000000014" y="953" as="targetPoint" />
          </mxGeometry>
        </mxCell>
        <mxCell id="_b4IaENyZN27dDxWxyfw-3" value="" style="edgeStyle=orthogonalEdgeStyle;rounded=0;orthogonalLoop=1;jettySize=auto;html=1;" edge="1" parent="-3bvXb9xsOaprucixAK7-1" source="_b4IaENyZN27dDxWxyfw-0" target="_b4IaENyZN27dDxWxyfw-2">
          <mxGeometry relative="1" as="geometry" />
        </mxCell>
        <mxCell id="_b4IaENyZN27dDxWxyfw-0" value="Драйвер&amp;nbsp;&lt;div&gt;светодиодов&lt;/div&gt;" style="rounded=0;whiteSpace=wrap;html=1;" vertex="1" parent="-3bvXb9xsOaprucixAK7-1">
          <mxGeometry x="500" y="403.55" width="78.74" height="78.74" as="geometry" />
        </mxCell>
        <mxCell id="_b4IaENyZN27dDxWxyfw-2" value="Светодиодные&lt;div&gt;индикаторы&lt;/div&gt;" style="rounded=0;whiteSpace=wrap;html=1;" vertex="1" parent="-3bvXb9xsOaprucixAK7-1">
          <mxGeometry x="330.71" y="403.55" width="94.49" height="78.74" as="geometry" />
        </mxCell>
        <mxCell id="_b4IaENyZN27dDxWxyfw-4" value="&lt;span style=&quot;font-size: 8px;&quot;&gt;Логический&lt;/span&gt;&lt;div&gt;&lt;span style=&quot;font-size: 8px;&quot;&gt;сигнал&lt;/span&gt;&lt;div&gt;&lt;span style=&quot;font-size: 8px;&quot;&gt;работы&lt;/span&gt;&lt;/div&gt;&lt;div&gt;&lt;span style=&quot;font-size: 8px;&quot;&gt;ключа&lt;/span&gt;&lt;/div&gt;&lt;/div&gt;" style="text;html=1;align=center;verticalAlign=middle;whiteSpace=wrap;rounded=0;" vertex="1" parent="-3bvXb9xsOaprucixAK7-1">
          <mxGeometry x="574.8" y="425.2" width="81.72" height="30" as="geometry" />
        </mxCell>
        <mxCell id="_b4IaENyZN27dDxWxyfw-6" value="&lt;span style=&quot;font-size: 8px;&quot;&gt;Сигнал&lt;/span&gt;&lt;div&gt;&lt;span style=&quot;font-size: 8px;&quot;&gt;управления&lt;/span&gt;&lt;/div&gt;&lt;div&gt;&lt;span style=&quot;font-size: 8px;&quot;&gt;светодиодами&lt;/span&gt;&lt;/div&gt;" style="text;html=1;align=center;verticalAlign=middle;whiteSpace=wrap;rounded=0;" vertex="1" parent="-3bvXb9xsOaprucixAK7-1">
          <mxGeometry x="421.26" y="413.39" width="81.72" height="37.88" as="geometry" />
        </mxCell>
        <mxCell id="_b4IaENyZN27dDxWxyfw-7" value="DD2&lt;div&gt;TPT75176H-VS1R&lt;/div&gt;" style="text;html=1;align=left;verticalAlign=middle;whiteSpace=wrap;rounded=0;" vertex="1" parent="-3bvXb9xsOaprucixAK7-1">
          <mxGeometry x="500" y="366.14" width="137.79" height="30" as="geometry" />
        </mxCell>
        <mxCell id="_b4IaENyZN27dDxWxyfw-9" value="HL1, HL2&lt;br&gt;&lt;div&gt;ДЕЫЕ-C295KGKRKT&lt;/div&gt;" style="text;html=1;align=left;verticalAlign=middle;whiteSpace=wrap;rounded=0;" vertex="1" parent="-3bvXb9xsOaprucixAK7-1">
          <mxGeometry x="326.77" y="365.08" width="137.79" height="30" as="geometry" />
        </mxCell>
      </root>
    </mxGraphModel>
  </diagram>
</mxfile>
